<svg width="83" height="8" viewBox="0 0 83 8" fill="none" xmlns="http://www.w3.org/2000/svg">
  <path
    d="M3.07472 5.13635H3.80527V6.43245H3.07472V5.13635ZM6.87999 6.42845H6.14944V2.94419H0.730548V6.42845H0V2.21613H6.87999V6.42845ZM5.41488 3.67224L5.41087 6.42845H4.68032V4.4003H2.19566V6.42845H1.46511V3.67224H5.41488ZM10.8017 6.32844C10.403 6.32844 10.0578 6.23909 9.76606 6.06042C9.47437 5.88174 9.24959 5.63505 9.09171 5.32037C8.93382 5.00834 8.85488 4.64698 8.85488 4.23628C8.85488 3.82291 8.93649 3.45889 9.09973 3.1442C9.26029 2.83218 9.48641 2.58816 9.7781 2.41215C10.0698 2.2388 10.411 2.15213 10.8017 2.15213C11.1977 2.15213 11.5415 2.24014 11.8333 2.41615C12.125 2.59482 12.3511 2.84151 12.5116 3.1562C12.6695 3.46823 12.7485 3.82825 12.7485 4.23628C12.7485 4.64965 12.6682 5.01234 12.5076 5.32437C12.3471 5.63905 12.121 5.88441 11.8293 6.06042C11.5375 6.23909 11.195 6.32844 10.8017 6.32844ZM10.8017 5.60439C11.1817 5.60439 11.4653 5.47771 11.6526 5.22436C11.84 4.96834 11.9336 4.63897 11.9336 4.23628C11.9336 3.82291 11.8386 3.49223 11.6486 3.24421C11.4587 2.99619 11.1763 2.87218 10.8017 2.87218C10.5448 2.87218 10.332 2.93085 10.1634 3.0482C9.99753 3.16287 9.87444 3.32288 9.79416 3.52823C9.71387 3.73091 9.67374 3.96692 9.67374 4.23628C9.67374 4.64965 9.76873 4.98167 9.95873 5.23236C10.1514 5.48038 10.4324 5.60439 10.8017 5.60439ZM13.5553 7.97656V2.26014H14.2377V2.61616C14.3072 2.54416 14.3822 2.48015 14.4624 2.42415C14.7166 2.2428 15.0311 2.15213 15.4057 2.15213C15.7803 2.15213 16.1029 2.2428 16.3731 2.42415C16.6433 2.60549 16.8521 2.85351 16.9993 3.16821C17.1465 3.48289 17.2201 3.83892 17.2201 4.23628C17.2201 4.63097 17.1465 4.987 16.9993 5.30436C16.8548 5.61905 16.6488 5.86841 16.3811 6.05242C16.1109 6.23643 15.7911 6.32844 15.4218 6.32844C15.0418 6.32844 14.7233 6.23643 14.4664 6.05242C14.4183 6.01775 14.3714 5.98041 14.326 5.94041V7.97656H13.5553ZM15.3174 5.63639C15.561 5.63639 15.763 5.57371 15.9235 5.44838C16.0841 5.32303 16.2045 5.15501 16.2848 4.94434C16.3651 4.73365 16.4052 4.49763 16.4052 4.23628C16.4052 3.9776 16.3651 3.74291 16.2848 3.53223C16.2045 3.32155 16.0828 3.15487 15.9195 3.0322C15.7562 2.90685 15.5462 2.84418 15.2893 2.84418C15.0512 2.84418 14.8531 2.90285 14.6952 3.02019C14.54 3.13753 14.425 3.30155 14.35 3.51223C14.2751 3.72025 14.2377 3.96159 14.2377 4.23628C14.2377 4.51097 14.2751 4.75232 14.35 4.96034C14.4223 5.17101 14.5387 5.33637 14.6993 5.45638C14.8571 5.57638 15.0632 5.63639 15.3174 5.63639ZM19.789 6.32844C19.3956 6.32844 19.0504 6.24176 18.7534 6.06842C18.4537 5.89774 18.2208 5.65772 18.055 5.34837C17.8917 5.039 17.8101 4.68032 17.8101 4.27229C17.8101 3.84026 17.8904 3.46556 18.0509 3.1482C18.2142 2.83084 18.4416 2.58549 18.7333 2.41215C19.025 2.2388 19.3648 2.15213 19.7529 2.15213C20.157 2.15213 20.5008 2.24547 20.7845 2.43215C21.0708 2.61882 21.2835 2.88418 21.4227 3.22821C21.5645 3.57224 21.6207 3.9816 21.5913 4.4563H18.653H18.637V4.4843C18.6664 4.80166 18.7587 5.05635 18.914 5.24836C19.1093 5.48571 19.3889 5.60572 19.7529 5.60839C19.9937 5.60839 20.2011 5.55371 20.3751 5.44437C20.5517 5.33503 20.6881 5.17901 20.7845 4.97634L21.5391 5.21236C21.3839 5.56704 21.1498 5.84173 20.8367 6.03642C20.5236 6.23109 20.1744 6.32844 19.789 6.32844ZM20.5597 3.1602C20.3884 2.93885 20.1289 2.82818 19.781 2.82818C19.3983 2.82818 19.1093 2.94952 18.914 3.19221C18.7828 3.35755 18.6959 3.57357 18.653 3.84026V3.86026H20.8005C20.7657 3.5669 20.6854 3.32288 20.5597 3.1602ZM22.3018 6.21643V2.26014H22.9882V2.73617C23.0978 2.59749 23.2303 2.48015 23.3856 2.38415C23.6397 2.23214 23.9448 2.15613 24.3007 2.15613C24.5764 2.15613 24.8078 2.20013 24.9952 2.28814C25.1798 2.37615 25.331 2.49082 25.4487 2.63217C25.5638 2.77618 25.6522 2.93219 25.7137 3.1002C25.7752 3.26821 25.8167 3.43356 25.8381 3.59624C25.8595 3.75625 25.8702 3.89759 25.8702 4.02027V6.22043H25.0915V4.27229C25.0915 4.11761 25.0795 3.95892 25.0554 3.79625C25.0286 3.63624 24.9791 3.48556 24.9069 3.34422C24.8346 3.20554 24.733 3.09353 24.6018 3.00819C24.4706 2.92285 24.2994 2.88018 24.088 2.88018C23.9515 2.88018 23.8218 2.90285 23.6986 2.94819C23.5755 2.99352 23.4685 3.06553 23.3775 3.16421C23.2865 3.26554 23.2143 3.39755 23.1608 3.56023C23.1073 3.72558 23.0805 3.92559 23.0805 4.16028V6.21643H22.3018ZM26.5325 2.87618V2.26014H27.1908V2.12013C27.1908 2.02145 27.1948 1.91477 27.2029 1.8001C27.2109 1.6881 27.2323 1.57609 27.2671 1.46408C27.3019 1.35207 27.3621 1.24939 27.4477 1.15606C27.5468 1.04672 27.6564 0.969372 27.7769 0.924039C27.8973 0.876036 28.0164 0.849367 28.1341 0.844032C28.2545 0.836032 28.3642 0.832031 28.4633 0.832031H28.965V1.46408H28.5034C28.3215 1.46141 28.185 1.50542 28.094 1.59609C28.0057 1.68409 27.9615 1.81076 27.9615 1.97612V2.26014H28.965V2.87618H27.9615V6.21643H27.1908V2.87618L26.5325 2.87618ZM31.1286 6.32844C30.7325 6.32844 30.3887 6.23909 30.097 6.06042C29.8052 5.88174 29.5805 5.63505 29.4226 5.32037C29.2648 5.00834 29.1858 4.64698 29.1858 4.23628C29.1858 3.82291 29.2661 3.45889 29.4266 3.1442C29.5899 2.83218 29.8173 2.58816 30.109 2.41215C30.4007 2.2388 30.7405 2.15213 31.1286 2.15213C31.5272 2.15213 31.8724 2.24014 32.1642 2.41615C32.4559 2.59482 32.6807 2.84151 32.8385 3.1562C32.9991 3.46823 33.0794 3.82825 33.0794 4.23628C33.0794 4.64965 32.9991 5.01234 32.8385 5.32437C32.678 5.63905 32.4519 5.88441 32.1602 6.06042C31.8684 6.23909 31.5246 6.32844 31.1286 6.32844ZM31.1286 5.60439C31.5086 5.60439 31.7922 5.47771 31.9795 5.22436C32.1669 4.96834 32.2605 4.63897 32.2605 4.23628C32.2605 3.82291 32.1655 3.49223 31.9755 3.24421C31.7855 2.99619 31.5032 2.87218 31.1286 2.87218C30.8717 2.87218 30.6602 2.93085 30.4943 3.0482C30.3258 3.16287 30.2013 3.32288 30.121 3.52823C30.0408 3.73091 30.0006 3.96692 30.0006 4.23628C30.0006 4.64965 30.0957 4.98167 30.2856 5.23236C30.4783 5.48038 30.7593 5.60439 31.1286 5.60439ZM33.8862 2.26014H34.5726V2.89219C34.602 2.84151 34.6328 2.79218 34.6649 2.74417C34.7452 2.64017 34.8362 2.55349 34.9378 2.48416C35.0395 2.40948 35.1519 2.35215 35.275 2.31214C35.3981 2.27214 35.5252 2.24814 35.6563 2.24014C35.7848 2.23214 35.9092 2.2388 36.0296 2.26014V2.97619C35.9012 2.94419 35.758 2.93485 35.6001 2.94819C35.4423 2.96419 35.2964 3.01485 35.1626 3.1002C35.0369 3.18021 34.9378 3.27754 34.8656 3.39222C34.7933 3.50689 34.7412 3.6349 34.709 3.77625C34.6769 3.91492 34.6609 4.06293 34.6609 4.22028V6.21643H33.8862V2.26014ZM36.2865 2.87618V2.26014H37.0492V1.16006H37.8199V2.26014H39V2.87618H37.8199V4.62431C37.8199 4.78166 37.8226 4.919 37.8279 5.03634C37.8306 5.15368 37.856 5.25236 37.9042 5.33237C37.9898 5.48438 38.129 5.57104 38.3216 5.59239C38.5143 5.61372 38.7404 5.60572 39 5.56838V6.21643C38.7511 6.2671 38.5063 6.28844 38.2654 6.28044C38.0246 6.27244 37.8106 6.22576 37.6232 6.14043C37.4332 6.05508 37.29 5.92041 37.1937 5.7364C37.1081 5.57371 37.0625 5.40703 37.0572 5.23636C37.0519 5.06835 37.0492 4.87633 37.0492 4.66032V2.87618H36.2865Z"
    fill="black"
  />
  <path
    d="M41.147 6.03115L41.966 1.35516H43.625C44.115 1.35516 44.493 1.45316 44.759 1.64916C45.025 1.84049 45.158 2.13449 45.158 2.53115C45.158 2.92782 45.0787 3.24749 44.92 3.49015C44.766 3.73282 44.5467 3.91015 44.262 4.02215C43.9774 4.12949 43.646 4.18315 43.268 4.18315H41.882L41.56 6.03115H41.147ZM41.945 3.81915H43.205C43.5084 3.81915 43.7744 3.78182 44.003 3.70715C44.2317 3.63249 44.409 3.50415 44.535 3.32215C44.6657 3.13549 44.731 2.88115 44.731 2.55915C44.731 2.26049 44.6284 2.04582 44.423 1.91515C44.2224 1.78449 43.9167 1.71916 43.506 1.71916H42.316L41.945 3.81915ZM45.2404 6.03115L46.0594 1.35516H46.4724L45.7164 5.66015H48.0404L47.9844 6.03115H45.2404ZM48.2175 6.03115L51.0035 1.35516H51.4375L52.5925 6.03115H52.1725L51.9065 4.92515H49.3375L48.6865 6.03115H48.2175ZM49.5405 4.56815H51.8225L51.1715 1.81016L49.5405 4.56815ZM53.2512 6.03115L53.5732 4.19015L52.1592 1.35516H52.6142L53.8182 3.81215L55.8832 1.35516H56.3942L53.9862 4.19015L53.6642 6.03115H53.2512ZM57.407 6.10115C57.0243 6.10115 56.6813 6.01949 56.378 5.85615C56.0793 5.69282 55.8436 5.46182 55.671 5.16315C55.503 4.86449 55.419 4.51449 55.419 4.11315C55.419 3.53449 55.5333 3.03515 55.762 2.61515C55.9953 2.19049 56.315 1.86382 56.721 1.63516C57.127 1.40182 57.5913 1.28516 58.114 1.28516C58.3473 1.28516 58.5666 1.30849 58.772 1.35516C58.9773 1.40182 59.1663 1.46949 59.339 1.55816C59.5116 1.64216 59.661 1.74482 59.787 1.86616L59.549 2.15315C59.381 2.00382 59.1733 1.88482 58.926 1.79616C58.6786 1.70282 58.3986 1.65616 58.086 1.65616C57.652 1.65616 57.2646 1.75416 56.924 1.95015C56.588 2.14615 56.322 2.42615 56.126 2.79015C55.9346 3.15415 55.839 3.59282 55.839 4.10615C55.839 4.44215 55.9043 4.73149 56.035 4.97415C56.1703 5.21682 56.357 5.40349 56.595 5.53415C56.8376 5.66482 57.1176 5.73015 57.435 5.73015C57.771 5.73015 58.0696 5.67649 58.331 5.56915C58.5923 5.45715 58.8163 5.30782 59.003 5.12115L59.206 3.94515H57.652L57.715 3.57415H59.682L59.374 5.31015C59.1266 5.57615 58.8373 5.77449 58.506 5.90515C58.1746 6.03582 57.8083 6.10115 57.407 6.10115ZM60.0142 6.03115L60.8332 1.35516H62.4922C62.9869 1.35516 63.3672 1.44149 63.6332 1.61416C63.9039 1.78682 64.0392 2.06682 64.0392 2.45415C64.0392 2.81349 63.9739 3.10282 63.8432 3.32215C63.7126 3.54149 63.5306 3.70482 63.2972 3.81215C63.0686 3.91482 62.8026 3.98015 62.4992 4.00815L63.6612 6.03115H63.1922L62.0582 4.02915H60.7772L60.4272 6.03115H60.0142ZM60.8402 3.67215H62.0932C62.4012 3.67215 62.6672 3.63949 62.8912 3.57415C63.1199 3.50882 63.2949 3.38982 63.4162 3.21715C63.5422 3.04449 63.6052 2.79949 63.6052 2.48215C63.6052 2.19282 63.5026 1.99449 63.2972 1.88716C63.0919 1.77516 62.7839 1.71916 62.3732 1.71916H61.1832L60.8402 3.67215ZM66.2636 6.10115C65.8809 6.10115 65.5379 6.01949 65.2346 5.85615C64.9359 5.69282 64.7003 5.46182 64.5276 5.16315C64.3596 4.86449 64.2756 4.51449 64.2756 4.11315C64.2756 3.53449 64.3899 3.03515 64.6186 2.61515C64.8519 2.19049 65.1716 1.86382 65.5776 1.63516C65.9836 1.40182 66.4479 1.28516 66.9706 1.28516C67.3533 1.28516 67.6939 1.36916 67.9926 1.53716C68.2959 1.70049 68.5339 1.93149 68.7066 2.23015C68.8793 2.52882 68.9656 2.87882 68.9656 3.28015C68.9656 3.85882 68.8513 4.36049 68.6226 4.78515C68.3939 5.20515 68.0766 5.52949 67.6706 5.75815C67.2646 5.98682 66.7956 6.10115 66.2636 6.10115ZM66.2916 5.73015C66.7256 5.73015 67.1106 5.63215 67.4466 5.43615C67.7873 5.24015 68.0533 4.96015 68.2446 4.59615C68.4406 4.23215 68.5386 3.79582 68.5386 3.28715C68.5386 2.94649 68.4709 2.65482 68.3356 2.41215C68.2049 2.16949 68.0183 1.98282 67.7756 1.85216C67.5376 1.72149 67.2599 1.65616 66.9426 1.65616C66.5086 1.65616 66.1213 1.75416 65.7806 1.95015C65.4446 2.14615 65.1786 2.42615 64.9826 2.79015C64.7913 3.15415 64.6956 3.59282 64.6956 4.10615C64.6956 4.44215 64.7609 4.73149 64.8916 4.97415C65.0269 5.21682 65.2136 5.40349 65.4516 5.53415C65.6943 5.66482 65.9743 5.73015 66.2916 5.73015ZM71.1655 6.10115C70.7595 6.10115 70.4235 6.01715 70.1575 5.84915C69.8962 5.68115 69.7142 5.44549 69.6115 5.14215C69.5089 4.83882 69.4925 4.48649 69.5625 4.08515L70.0385 1.35516H70.4515L69.9685 4.09915C69.9405 4.30915 69.9335 4.51215 69.9475 4.70815C69.9662 4.90415 70.0175 5.07915 70.1015 5.23315C70.1902 5.38715 70.3232 5.50849 70.5005 5.59715C70.6779 5.68582 70.9089 5.73015 71.1935 5.73015C71.4969 5.73015 71.7652 5.68349 71.9985 5.59015C72.2319 5.49215 72.4255 5.33349 72.5795 5.11415C72.7382 4.89015 72.8502 4.59149 72.9155 4.21815L73.4195 1.35516H73.8325L73.3285 4.22515C73.2492 4.67782 73.1139 5.04182 72.9225 5.31715C72.7312 5.59249 72.4885 5.79315 72.1945 5.91915C71.9005 6.04049 71.5575 6.10115 71.1655 6.10115ZM73.9076 6.03115L74.7266 1.35516H75.1956L77.3796 5.50615L78.1076 1.35516H78.5206L77.7016 6.03115H77.2256L75.0486 1.88016L74.3206 6.03115H73.9076ZM78.5957 6.03115L79.4147 1.35516H80.8847C81.5614 1.35516 82.077 1.51616 82.4317 1.83816C82.7864 2.16015 82.9637 2.64082 82.9637 3.28015C82.9637 4.17615 82.7257 4.85982 82.2497 5.33115C81.7784 5.79782 81.097 6.03115 80.2057 6.03115H78.5957ZM79.0717 5.66715H80.1777C80.9617 5.66715 81.5497 5.47115 81.9417 5.07915C82.3384 4.68249 82.5367 4.08515 82.5367 3.28715C82.5367 2.71782 82.392 2.31415 82.1027 2.07615C81.8134 1.83816 81.3794 1.71916 80.8007 1.71916H79.7647L79.0717 5.66715Z"
    fill="#f97316"
  />
</svg>