<svg width="15" height="15" viewBox="0 0 15 15" fill="none" xmlns="http://www.w3.org/2000/svg">
<mask id="path-1-outside-1_5_6" maskUnits="userSpaceOnUse" x="0" y="0" width="15" height="15" fill="black">
<rect fill="white" width="15" height="15"/>
<path d="M12.0892 10.4844C11.3943 11.5634 10.3447 12.3644 9.1226 12.7485C7.90046 13.1325 6.58286 13.0753 5.39836 12.5869C4.21385 12.0984 3.23717 11.2095 2.63772 10.0743C2.03828 8.93912 1.8539 7.62927 2.11656 6.37199C2.37923 5.1147 3.07236 3.98929 4.07574 3.19099C5.07911 2.39268 6.32943 1.97184 7.60979 2.00146C8.89015 2.03109 10.1198 2.50931 11.0854 3.35317C12.051 4.19704 12.6917 5.3533 12.8963 6.6214C12.6909 5.35361 12.0504 4.19751 11.0849 3.35376C10.1194 2.51002 8.88995 2.03187 7.60977 2.00225C6.32959 1.97263 5.07946 2.39341 4.07622 3.1916C3.07299 3.98979 2.37995 5.11504 2.11733 6.37215C1.8547 7.62926 2.03906 8.93892 2.63841 10.0739C3.23777 11.209 4.21432 12.0978 5.39865 12.5862C6.58299 13.0745 7.9004 13.1317 9.12236 12.7477C10.3443 12.3637 11.3937 11.5629 12.0886 10.484L12.0892 10.4844Z"/>
</mask>
<path d="M12.0892 10.4844C11.3943 11.5634 10.3447 12.3644 9.1226 12.7485C7.90046 13.1325 6.58286 13.0753 5.39836 12.5869C4.21385 12.0984 3.23717 11.2095 2.63772 10.0743C2.03828 8.93912 1.8539 7.62927 2.11656 6.37199C2.37923 5.1147 3.07236 3.98929 4.07574 3.19099C5.07911 2.39268 6.32943 1.97184 7.60979 2.00146C8.89015 2.03109 10.1198 2.50931 11.0854 3.35317C12.051 4.19704 12.6917 5.3533 12.8963 6.6214C12.6909 5.35361 12.0504 4.19751 11.0849 3.35376C10.1194 2.51002 8.88995 2.03187 7.60977 2.00225C6.32959 1.97263 5.07946 2.39341 4.07622 3.1916C3.07299 3.98979 2.37995 5.11504 2.11733 6.37215C1.8547 7.62926 2.03906 8.93892 2.63841 10.0739C3.23777 11.209 4.21432 12.0978 5.39865 12.5862C6.58299 13.0745 7.9004 13.1317 9.12236 12.7477C10.3443 12.3637 11.3937 11.5629 12.0886 10.484L12.0892 10.4844Z" stroke="url(#paint0_angular_5_6)" stroke-width="3" stroke-linejoin="round" mask="url(#path-1-outside-1_5_6)"/>
<defs>
<radialGradient id="paint0_angular_5_6" cx="0" cy="0" r="1" gradientUnits="userSpaceOnUse" gradientTransform="translate(7.48333 7.5) rotate(15.569) scale(5.99838 6.01399)">
<stop stop-color="#4786FF" stop-opacity="0"/>
<stop offset="0.291667" stop-color="#4786FF" stop-opacity="0"/>
<stop offset="1" stop-color="#4786FF"/>
</radialGradient>
</defs>
</svg>
